<svg version="1.1" id="Layer_1" xmlns="http://www.w3.org/2000/svg" xmlns:xlink="http://www.w3.org/1999/xlink" x="0px" y="0px"
	 width="100%" viewBox="0 0 2048 2048" enable-background="new 0 0 2048 2048" xml:space="preserve">
<path fill="#3178C6" opacity="1.000000" stroke="none" 
	d="
M1.000010,1877.000000 
	C1.000000,1309.298462 1.000000,741.596863 1.396500,173.627808 
	C2.185660,172.685745 2.853584,172.041168 2.930929,171.332153 
	C5.172273,150.785797 11.626306,131.423370 20.640490,113.040382 
	C33.013863,87.806877 49.476192,65.377525 71.768272,48.005131 
	C84.229248,38.294201 97.303726,28.979296 111.239037,21.647564 
	C129.890091,11.834752 149.971802,5.202061 171.201508,2.907682 
	C171.862015,2.836298 172.403198,1.660772 173.000000,0.999999 
	C741.034912,1.000000 1309.069824,1.000000 1877.328613,1.377433 
	C1881.924072,2.830958 1886.263306,4.067694 1890.672852,4.956097 
	C1912.849365,9.424181 1933.567139,17.574121 1952.867310,29.352379 
	C1971.415894,40.672031 1987.645020,54.622330 2001.812744,71.159363 
	C2012.558716,83.702469 2021.679443,97.304420 2028.885010,112.009155 
	C2038.040894,130.693741 2044.741089,150.324554 2047.092163,171.206787 
	C2047.166504,171.867737 2048.339355,172.405029 2049.000000,172.999985 
	C2049.000000,740.701599 2049.000000,1308.403198 2048.602783,1876.372314 
	C2046.934204,1882.459106 2045.707886,1888.288574 2044.383301,1894.095703 
	C2039.550049,1915.286255 2031.462769,1935.118286 2020.118042,1953.699951 
	C2007.956055,1973.619873 1992.722778,1990.871948 1974.680298,2005.457275 
	C1961.051514,2016.474609 1946.124023,2025.693848 1929.880249,2032.609985 
	C1913.607788,2039.538452 1896.904297,2044.843262 1879.295288,2047.081055 
	C1878.462280,2047.187012 1877.762085,2048.336426 1877.000000,2049.000000 
	C1309.298462,2049.000000 741.596863,2049.000000 173.627075,2048.602539 
	C170.096008,2047.470825 166.857666,2046.594238 163.566177,2046.025269 
	C145.242157,2042.857300 127.719841,2036.934814 111.273148,2028.551514 
	C87.197319,2016.279175 65.458229,2000.508911 48.727779,1978.985840 
	C39.120007,1966.625732 29.620703,1953.875732 22.303032,1940.115234 
	C12.172390,1921.065063 5.277242,1900.550049 2.907890,1878.813477 
	C2.835313,1878.147461 1.660804,1877.601685 1.000010,1877.000000 
M1646.587402,953.999573 
	C1642.136963,953.691467 1637.677246,953.024597 1633.237549,953.137207 
	C1613.667236,953.633545 1594.097046,954.219360 1574.538452,955.050415 
	C1564.439575,955.479553 1554.285034,955.928833 1544.297607,957.359863 
	C1527.009033,959.837097 1509.717163,962.541016 1492.628052,966.113647 
	C1444.343140,976.208069 1399.171143,993.929688 1359.431519,1023.705994 
	C1299.994141,1068.241577 1269.273804,1128.344238 1265.228149,1202.069336 
	C1264.313354,1218.739746 1265.370728,1235.658691 1267.068237,1252.305176 
	C1271.679688,1297.524048 1288.373657,1337.972778 1317.412476,1373.113647 
	C1344.455200,1405.839111 1378.125244,1430.301636 1414.812500,1451.010864 
	C1444.900024,1467.994629 1477.038818,1480.452515 1508.683228,1494.024658 
	C1541.567627,1508.128784 1574.512939,1522.136719 1604.845581,1541.439819 
	C1622.533325,1552.695801 1638.783569,1565.570801 1651.604492,1582.371338 
	C1664.890869,1599.781616 1670.189331,1619.474609 1667.434326,1641.090210 
	C1664.225342,1666.266235 1649.867065,1684.097046 1628.756104,1696.965088 
	C1600.040405,1714.468628 1567.884033,1719.871582 1535.151978,1721.773071 
	C1511.213989,1723.163696 1487.215088,1721.782471 1463.382080,1718.240356 
	C1395.024658,1708.081055 1333.598755,1681.918701 1279.272217,1639.160034 
	C1276.062744,1636.633911 1272.845093,1634.118164 1269.114380,1631.192139 
	C1268.986938,1633.106934 1268.848511,1634.219971 1268.848267,1635.332886 
	C1268.838013,1699.164062 1268.862061,1762.995239 1268.769287,1826.826294 
	C1268.764648,1829.947632 1269.671265,1831.746826 1272.562256,1832.890625 
	C1289.561401,1839.615234 1306.243286,1847.274048 1323.555298,1853.050781 
	C1378.330566,1871.328125 1435.264282,1877.545166 1492.506104,1880.738037 
	C1515.359985,1882.012817 1538.448486,1881.383179 1561.301270,1879.781372 
	C1588.339111,1877.886597 1615.376709,1874.905884 1642.164795,1870.776978 
	C1685.085938,1864.161377 1726.018921,1851.008545 1763.700073,1828.898315 
	C1815.180420,1798.691162 1851.395508,1756.010010 1869.533447,1698.672363 
	C1877.315796,1674.070801 1879.948608,1648.643433 1880.808594,1623.062012 
	C1881.895264,1590.741577 1878.751953,1558.830322 1868.402954,1527.959106 
	C1852.311890,1479.958496 1821.478394,1443.012939 1781.704956,1412.815063 
	C1746.993530,1386.460693 1708.426514,1366.915039 1668.936768,1349.022339 
	C1634.846680,1333.575928 1600.424072,1318.833252 1566.655518,1302.717407 
	C1542.553955,1291.215210 1519.898682,1277.032349 1501.299194,1257.389648 
	C1464.861206,1218.908081 1470.974243,1168.044800 1515.388062,1139.018433 
	C1533.103027,1127.440796 1552.809204,1121.043945 1573.357544,1117.006348 
	C1606.885254,1110.418335 1640.582886,1110.852295 1674.363281,1114.872437 
	C1721.749023,1120.511719 1766.958740,1133.452515 1809.457031,1155.288208 
	C1820.211792,1160.813965 1830.453369,1167.338501 1841.605347,1173.794556 
	C1841.605347,1171.561523 1841.605347,1169.636963 1841.605347,1167.712524 
	C1841.605225,1110.047852 1841.519653,1052.382690 1841.742310,994.718933 
	C1841.763550,989.195190 1840.320557,986.718750 1834.934448,984.811584 
	C1774.295532,963.341187 1711.627319,954.505493 1646.587402,953.999573 
M678.499817,1137.250854 
	C695.085999,1137.250854 711.672241,1137.250854 728.865112,1137.250854 
	C728.865112,1381.605835 728.865112,1625.143188 728.865112,1868.683594 
	C796.893738,1868.683594 864.301697,1868.683594 932.243652,1868.683594 
	C932.243652,1624.814575 932.243652,1381.261475 932.243652,1137.203247 
	C1018.020081,1137.203247 1103.263306,1137.203247 1188.752197,1137.203247 
	C1188.752197,1082.293091 1188.752197,1027.889160 1188.752197,973.304565 
	C950.126953,973.304565 711.748840,973.304565 473.303223,973.304565 
	C473.303223,1028.017700 473.303223,1082.425781 473.303223,1137.250854 
	C541.570312,1137.250854 609.535034,1137.250854 678.499817,1137.250854 
z"/>
<path fill="#000000" opacity="1.000000" stroke="none" 
	d="
M1.000010,1877.468628 
	C1.660804,1877.601685 2.835313,1878.147461 2.907890,1878.813477 
	C5.277242,1900.550049 12.172390,1921.065063 22.303032,1940.115234 
	C29.620703,1953.875732 39.120007,1966.625732 48.727779,1978.985840 
	C65.458229,2000.508911 87.197319,2016.279175 111.273148,2028.551514 
	C127.719841,2036.934814 145.242157,2042.857300 163.566177,2046.025269 
	C166.857666,2046.594238 170.096008,2047.470825 173.179443,2048.602539 
	C115.739647,2049.000000 58.479294,2049.000000 1.000000,2049.000000 
	C1.000000,1991.979248 1.000000,1934.958252 1.000010,1877.468628 
z"/>
<path fill="#000000" opacity="1.000000" stroke="none" 
	d="
M1877.468628,2049.000000 
	C1877.762085,2048.336426 1878.462280,2047.187012 1879.295288,2047.081055 
	C1896.904297,2044.843262 1913.607788,2039.538452 1929.880249,2032.609985 
	C1946.124023,2025.693848 1961.051514,2016.474609 1974.680298,2005.457275 
	C1992.722778,1990.871948 2007.956055,1973.619873 2020.118042,1953.699951 
	C2031.462769,1935.118286 2039.550049,1915.286255 2044.383301,1894.095703 
	C2045.707886,1888.288574 2046.934204,1882.459106 2048.602783,1876.819946 
	C2049.000000,1934.260376 2049.000000,1991.520630 2049.000000,2049.000000 
	C1991.979248,2049.000000 1934.958252,2049.000000 1877.468628,2049.000000 
z"/>
<path fill="#000000" opacity="1.000000" stroke="none" 
	d="
M172.531342,0.999999 
	C172.403198,1.660772 171.862015,2.836298 171.201508,2.907682 
	C149.971802,5.202061 129.890091,11.834752 111.239037,21.647564 
	C97.303726,28.979296 84.229248,38.294201 71.768272,48.005131 
	C49.476192,65.377525 33.013863,87.806877 20.640490,113.040382 
	C11.626306,131.423370 5.172273,150.785797 2.930929,171.332153 
	C2.853584,172.041168 2.185660,172.685745 1.396500,173.180176 
	C1.000000,115.739647 1.000000,58.479294 1.000000,1.000000 
	C58.020706,1.000000 115.041695,1.000000 172.531342,0.999999 
z"/>
<path fill="#000000" opacity="1.000000" stroke="none" 
	d="
M2049.000000,172.531326 
	C2048.339355,172.405029 2047.166504,171.867737 2047.092163,171.206787 
	C2044.741089,150.324554 2038.040894,130.693741 2028.885010,112.009155 
	C2021.679443,97.304420 2012.558716,83.702469 2001.812744,71.159363 
	C1987.645020,54.622330 1971.415894,40.672031 1952.867310,29.352379 
	C1933.567139,17.574121 1912.849365,9.424181 1890.672852,4.956097 
	C1886.263306,4.067694 1881.924072,2.830958 1877.776123,1.377433 
	C1934.927246,1.000000 1991.854492,1.000000 2049.000000,1.000000 
	C2049.000000,58.020710 2049.000000,115.041695 2049.000000,172.531326 
z"/>
<path fill="#FFFFFF" opacity="1.000000" stroke="none" 
	d="
M1647.077148,953.999512 
	C1711.627319,954.505493 1774.295532,963.341187 1834.934448,984.811584 
	C1840.320557,986.718750 1841.763550,989.195190 1841.742310,994.718933 
	C1841.519653,1052.382690 1841.605225,1110.047852 1841.605347,1167.712524 
	C1841.605347,1169.636963 1841.605347,1171.561523 1841.605347,1173.794556 
	C1830.453369,1167.338501 1820.211792,1160.813965 1809.457031,1155.288208 
	C1766.958740,1133.452515 1721.749023,1120.511719 1674.363281,1114.872437 
	C1640.582886,1110.852295 1606.885254,1110.418335 1573.357544,1117.006348 
	C1552.809204,1121.043945 1533.103027,1127.440796 1515.388062,1139.018433 
	C1470.974243,1168.044800 1464.861206,1218.908081 1501.299194,1257.389648 
	C1519.898682,1277.032349 1542.553955,1291.215210 1566.655518,1302.717407 
	C1600.424072,1318.833252 1634.846680,1333.575928 1668.936768,1349.022339 
	C1708.426514,1366.915039 1746.993530,1386.460693 1781.704956,1412.815063 
	C1821.478394,1443.012939 1852.311890,1479.958496 1868.402954,1527.959106 
	C1878.751953,1558.830322 1881.895264,1590.741577 1880.808594,1623.062012 
	C1879.948608,1648.643433 1877.315796,1674.070801 1869.533447,1698.672363 
	C1851.395508,1756.010010 1815.180420,1798.691162 1763.700073,1828.898315 
	C1726.018921,1851.008545 1685.085938,1864.161377 1642.164795,1870.776978 
	C1615.376709,1874.905884 1588.339111,1877.886597 1561.301270,1879.781372 
	C1538.448486,1881.383179 1515.359985,1882.012817 1492.506104,1880.738037 
	C1435.264282,1877.545166 1378.330566,1871.328125 1323.555298,1853.050781 
	C1306.243286,1847.274048 1289.561401,1839.615234 1272.562256,1832.890625 
	C1269.671265,1831.746826 1268.764648,1829.947632 1268.769287,1826.826294 
	C1268.862061,1762.995239 1268.838013,1699.164062 1268.848267,1635.332886 
	C1268.848511,1634.219971 1268.986938,1633.106934 1269.114380,1631.192139 
	C1272.845093,1634.118164 1276.062744,1636.633911 1279.272217,1639.160034 
	C1333.598755,1681.918701 1395.024658,1708.081055 1463.382080,1718.240356 
	C1487.215088,1721.782471 1511.213989,1723.163696 1535.151978,1721.773071 
	C1567.884033,1719.871582 1600.040405,1714.468628 1628.756104,1696.965088 
	C1649.867065,1684.097046 1664.225342,1666.266235 1667.434326,1641.090210 
	C1670.189331,1619.474609 1664.890869,1599.781616 1651.604492,1582.371338 
	C1638.783569,1565.570801 1622.533325,1552.695801 1604.845581,1541.439819 
	C1574.512939,1522.136719 1541.567627,1508.128784 1508.683228,1494.024658 
	C1477.038818,1480.452515 1444.900024,1467.994629 1414.812500,1451.010864 
	C1378.125244,1430.301636 1344.455200,1405.839111 1317.412476,1373.113647 
	C1288.373657,1337.972778 1271.679688,1297.524048 1267.068237,1252.305176 
	C1265.370728,1235.658691 1264.313354,1218.739746 1265.228149,1202.069336 
	C1269.273804,1128.344238 1299.994141,1068.241577 1359.431519,1023.705994 
	C1399.171143,993.929688 1444.343140,976.208069 1492.628052,966.113647 
	C1509.717163,962.541016 1527.009033,959.837097 1544.297607,957.359863 
	C1554.285034,955.928833 1564.439575,955.479553 1574.538452,955.050415 
	C1594.097046,954.219360 1613.667236,953.633545 1633.237549,953.137207 
	C1637.677246,953.024597 1642.136963,953.691467 1647.077148,953.999512 
z"/>
<path fill="#FFFFFF" opacity="1.000000" stroke="none" 
	d="
M677.999756,1137.250854 
	C609.535034,1137.250854 541.570312,1137.250854 473.303223,1137.250854 
	C473.303223,1082.425781 473.303223,1028.017700 473.303223,973.304565 
	C711.748840,973.304565 950.126953,973.304565 1188.752197,973.304565 
	C1188.752197,1027.889160 1188.752197,1082.293091 1188.752197,1137.203247 
	C1103.263306,1137.203247 1018.020081,1137.203247 932.243652,1137.203247 
	C932.243652,1381.261475 932.243652,1624.814575 932.243652,1868.683594 
	C864.301697,1868.683594 796.893738,1868.683594 728.865112,1868.683594 
	C728.865112,1625.143188 728.865112,1381.605835 728.865112,1137.250854 
	C711.672241,1137.250854 695.085999,1137.250854 677.999756,1137.250854 
z"/>
</svg>