<?xml version="1.0" encoding="UTF-8"?>
<svg version="1.1" xmlns="http://www.w3.org/2000/svg" width="256" height="256">
<path d="M0 0 C84.48 0 168.96 0 256 0 C256 84.48 256 168.96 256 256 C171.52 256 87.04 256 0 256 C0 171.52 0 87.04 0 0 Z " fill="#010005" transform="translate(0,0)"/>
<path d="M0 0 C0.99 1.98 1.98 3.96 3 6 C14.88 6 26.76 6 39 6 C39.99 4.02 40.98 2.04 42 0 C52.9917642 -0.17647328 66.6417469 3.27977247 75.5625 9.90234375 C77.44531143 12.1730492 78.69313552 14.35266595 80 17 C80.66208787 18.22632856 81.32632267 19.45149937 81.9921875 20.67578125 C88.29666588 32.5489023 93.24197107 44.81317417 96 58 C96.20625 58.93457031 96.4125 59.86914062 96.625 60.83203125 C98.01207847 68.18162063 98.29610316 75.53971651 98.4375 83 C98.47190186 84.00393799 98.50630371 85.00787598 98.54174805 86.04223633 C98.58341863 93.20414089 98.58341863 93.20414089 95.84375 96.94140625 C84.42569869 105.20694614 71.96171235 112.20765753 58 115 C56.84962529 113.3990869 55.70485184 111.79414775 54.5625 110.1875 C53.92441406 109.29417969 53.28632813 108.40085937 52.62890625 107.48046875 C51 105 51 105 50 102 C53.96 100.02 57.92 98.04 62 96 C60.515 95.01 60.515 95.01 59 94 C56.08793634 94.80044417 53.38028766 95.69455588 50.5625 96.75 C26.77208899 105.11414807 5.23697914 102.44677546 -18 94 C-18.66 94.66 -19.32 95.32 -20 96 C-16.04 97.98 -12.08 99.96 -8 102 C-9.0673677 103.98782243 -10.15445842 105.96506484 -11.25 107.9375 C-11.85328125 109.03964844 -12.4565625 110.14179688 -13.078125 111.27734375 C-15 114 -15 114 -16.8125 115.02734375 C-28.35115729 114.88311053 -46.82908687 103.927912 -55 96 C-62.02862951 75.60319279 -52.01937845 46.1104745 -43.73828125 27.47265625 C-41.81226631 23.62495449 -39.7215296 19.95652233 -37.4375 16.3125 C-37.07366211 15.72388184 -36.70982422 15.13526367 -36.33496094 14.52880859 C-32.12427629 8.08816047 -26.51562638 6.27929566 -19.5625 3.875 C-18.82451172 3.61074219 -18.08652344 3.34648438 -17.32617188 3.07421875 C-11.55263945 1.05219939 -6.16247169 -0.18124917 0 0 Z " fill="#FBFBFB" transform="translate(107,71)"/>
<path d="M0 0 C4.51934268 2.25967134 6.76144177 4.52288355 9 9 C9.83248306 14.57238659 9.74625519 19.48083765 7.25 24.5625 C2.47809099 29.7320681 2.47809099 29.7320681 -1.5859375 30.46875 C-10.04558011 30.56353591 -10.04558011 30.56353591 -13.5625 27.75 C-18.13832564 22.58753005 -18.44047069 18.7084291 -18.31640625 11.91796875 C-17.7689427 6.86913822 -15.54925408 4.32793207 -11.8125 1.125 C-7.79880044 -0.48047982 -4.26304489 -0.67667379 0 0 Z " fill="#06060A" transform="translate(107,119)"/>
<path d="M0 0 C4.38544865 2.19272433 7.23315916 4.38658225 9 9 C9.67983678 15.17518405 9.79143205 20.8183762 6 26 C2.4967262 29.24693669 -0.32525948 30.30240166 -5 30.5625 C-8.52891204 30.41900508 -10.71708799 29.95313867 -13.5 27.75 C-18.12307117 22.66462172 -18.49408987 18.75266183 -18.38671875 11.98828125 C-17.78718172 7.35549514 -16.21187118 5.35786533 -13 2 C-8.78825695 -0.56517684 -4.80967638 -0.67636074 0 0 Z " fill="#06060A" transform="translate(158,119)"/>
<path d="M0 0 C4.95 1.65 9.9 3.3 15 5 C13.35 6.32 11.7 7.64 10 9 C5.1721753 8.16037831 1.15867238 5.49520343 -3 3 C-2.01 2.01 -1.02 1.02 0 0 Z " fill="#121317" transform="translate(89,164)"/>
<path d="M0 0 C0.81210938 0.55300781 0.81210938 0.55300781 1.640625 1.1171875 C-0.76706203 3.90882462 -3.12084116 5.01436307 -6.546875 6.3046875 C-7.44792969 6.64886719 -8.34898437 6.99304688 -9.27734375 7.34765625 C-9.96441406 7.60160156 -10.65148437 7.85554687 -11.359375 8.1171875 C-12.019375 6.4671875 -12.679375 4.8171875 -13.359375 3.1171875 C-11.61703675 2.39021189 -9.86510155 1.68620506 -8.109375 0.9921875 C-7.13484375 0.59773437 -6.1603125 0.20328125 -5.15625 -0.203125 C-2.359375 -0.8828125 -2.359375 -0.8828125 0 0 Z " fill="#121115" transform="translate(168.359375,164.8828125)"/>
<path d="M0 0 C0.66 0.99 1.32 1.98 2 3 C0.68 3 -0.64 3 -2 3 C-2.268125 3.598125 -2.53625 4.19625 -2.8125 4.8125 C-4.02300334 7.04237457 -4.991379 8.45490692 -7 10 C-8.32 10 -9.64 10 -11 10 C-11 9.34 -11 8.68 -11 8 C-11.66 7.67 -12.32 7.34 -13 7 C-8.71 4.69 -4.42 2.38 0 0 Z " fill="#0D0D10" transform="translate(194,173)"/>
<path d="M0 0 C0.226875 0.9075 0.45375 1.815 0.6875 2.75 C2.18127977 6.44888324 3.75400577 7.77905658 7 10 C3.6875 10.3125 3.6875 10.3125 0 10 C-2.77189158 6.78102913 -3 5.3064427 -3 1 C-1 0 -1 0 0 0 Z " fill="#141416" transform="translate(52,162)"/>
<path d="M0 0 C2.7839183 1.39195915 2.97898997 3.15575779 4 6 C1 7 1 7 -2 6 C-2.33 6.66 -2.66 7.32 -3 8 C-3.66 8 -4.32 8 -5 8 C-3.8141763 4.62496331 -2.72426311 2.35277269 0 0 Z " fill="#F3F3F5" transform="translate(76,79)"/>
<path d="M0 0 C1.67542976 0.28604898 3.34385343 0.61781233 5 1 C3.68 3.64 2.36 6.28 1 9 C-1 7 -1 7 -1.1875 3.9375 C-1 1 -1 1 0 0 Z " fill="#17161C" transform="translate(69,80)"/>
<path d="M0 0 C1.5625 1.625 1.5625 1.625 3 4 C2.6875 7.25 2.6875 7.25 2 10 C-1 6.25 -1 6.25 -1 4 C-1.99 3.67 -2.98 3.34 -4 3 C-3.01 2.67 -2.02 2.34 -1 2 C-0.67 1.34 -0.34 0.68 0 0 Z " fill="#16191C" transform="translate(108,67)"/>
<path d="M0 0 C1.32 0.33 2.64 0.66 4 1 C4 1.66 4 2.32 4 3 C3.01 3 2.02 3 1 3 C0.87625 3.639375 0.7525 4.27875 0.625 4.9375 C0.41875 5.618125 0.2125 6.29875 0 7 C-0.99 7.495 -0.99 7.495 -2 8 C-2.33 7.01 -2.66 6.02 -3 5 C-1.5625 2.3125 -1.5625 2.3125 0 0 Z " fill="#F4F4F4" transform="translate(115,140)"/>
<path d="M0 0 C0.8353125 0.556875 0.8353125 0.556875 1.6875 1.125 C0.5625 2.6875 0.5625 2.6875 -1.3125 4.125 C-4.5 3.8125 -4.5 3.8125 -7.3125 3.125 C-7.3125 2.465 -7.3125 1.805 -7.3125 1.125 C-2.88173077 -1.09038462 -2.88173077 -1.09038462 0 0 Z " fill="#19181D" transform="translate(168.3125,164.875)"/>
<path d="M0 0 C2 3 2 3 1.625 6.1875 C1.41875 7.115625 1.2125 8.04375 1 9 C0.34 9 -0.32 9 -1 9 C-1.125 2.25 -1.125 2.25 0 0 Z " fill="#151517" transform="translate(141,126)"/>
<path d="M0 0 C0.66 0.33 1.32 0.66 2 1 C1.67 1.99 1.34 2.98 1 4 C0.34 4 -0.32 4 -1 4 C-1.33 4.99 -1.66 5.98 -2 7 C-2.66 6.34 -3.32 5.68 -4 5 C-2.68 3.35 -1.36 1.7 0 0 Z " fill="#222127" transform="translate(94,121)"/>
<path d="M0 0 C1.32 0.33 2.64 0.66 4 1 C3.34 2.32 2.68 3.64 2 5 C-0.475 4.01 -0.475 4.01 -3 3 C-2.01 2.67 -1.02 2.34 0 2 C0 1.34 0 0.68 0 0 Z " fill="#F4F4F2" transform="translate(83,163)"/>
</svg>
